<?xml version="1.0" encoding="UTF-8"?>
<svg width="146px" height="107px" viewBox="0 0 146 107" version="1.1" xmlns="http://www.w3.org/2000/svg" xmlns:xlink="http://www.w3.org/1999/xlink">
    <title>暂无搜索结果</title>
    <defs>
        <linearGradient x1="5.00204848%" y1="37.300725%" x2="113.704554%" y2="64.3524781%" id="linearGradient-1">
            <stop stop-color="#EDF3FB" offset="0%"></stop>
            <stop stop-color="#B2C5DB" offset="100%"></stop>
        </linearGradient>
        <linearGradient x1="48.6285713%" y1="50.2721157%" x2="48.733196%" y2="49.0816871%" id="linearGradient-2">
            <stop stop-color="#FFFFFF" stop-opacity="0" offset="0%"></stop>
            <stop stop-color="#FFFFFF" stop-opacity="0.000857066178" offset="0.146926731%"></stop>
            <stop stop-color="#F1F4F5" stop-opacity="0.301858742" offset="51.7476006%"></stop>
            <stop stop-color="#CBDBEA" stop-opacity="0.5" offset="100%"></stop>
        </linearGradient>
        <linearGradient x1="45.7207774%" y1="27.5582872%" x2="25.9262157%" y2="128.497377%" id="linearGradient-3">
            <stop stop-color="#4D4DEE" offset="0%"></stop>
            <stop stop-color="#0196FF" offset="100%"></stop>
        </linearGradient>
        <linearGradient x1="50%" y1="0%" x2="50%" y2="107.418526%" id="linearGradient-4">
            <stop stop-color="#4D4DEE" offset="1.25177557%"></stop>
            <stop stop-color="#0196FF" offset="100%"></stop>
        </linearGradient>
        <linearGradient x1="50%" y1="0%" x2="50%" y2="107.418526%" id="linearGradient-5">
            <stop stop-color="#4D4DEE" offset="1.25177557%"></stop>
            <stop stop-color="#0196FF" offset="100%"></stop>
        </linearGradient>
        <linearGradient x1="50%" y1="0%" x2="50%" y2="107.418526%" id="linearGradient-6">
            <stop stop-color="#4D4DEE" offset="1.25177557%"></stop>
            <stop stop-color="#0196FF" offset="100%"></stop>
        </linearGradient>
        <linearGradient x1="50%" y1="0%" x2="50%" y2="107.418526%" id="linearGradient-7">
            <stop stop-color="#4D4DEE" offset="1.25177557%"></stop>
            <stop stop-color="#0196FF" offset="100%"></stop>
        </linearGradient>
        <linearGradient x1="-61.758307%" y1="30.7199391%" x2="113.704554%" y2="58.7434759%" id="linearGradient-8">
            <stop stop-color="#EDF3FB" offset="0%"></stop>
            <stop stop-color="#B2C5DB" offset="100%"></stop>
        </linearGradient>
        <linearGradient x1="50%" y1="0%" x2="50%" y2="107.418526%" id="linearGradient-9">
            <stop stop-color="#4D4DEE" offset="1.25177557%"></stop>
            <stop stop-color="#0196FF" offset="100%"></stop>
        </linearGradient>
        <linearGradient x1="50%" y1="0%" x2="50%" y2="107.418526%" id="linearGradient-10">
            <stop stop-color="#4D4DEE" offset="0%"></stop>
            <stop stop-color="#0196FF" offset="100%"></stop>
        </linearGradient>
        <linearGradient x1="50%" y1="0%" x2="50%" y2="107.418526%" id="linearGradient-11">
            <stop stop-color="#4D4DEE" offset="0%"></stop>
            <stop stop-color="#0196FF" offset="100%"></stop>
        </linearGradient>
        <linearGradient x1="50%" y1="0%" x2="50%" y2="107.418526%" id="linearGradient-12">
            <stop stop-color="#4D4DEE" offset="1.25177557%"></stop>
            <stop stop-color="#0196FF" offset="100%"></stop>
        </linearGradient>
        <linearGradient x1="50%" y1="0%" x2="50%" y2="107.418526%" id="linearGradient-13">
            <stop stop-color="#4D4DEE" offset="1.25177557%"></stop>
            <stop stop-color="#0196FF" offset="100%"></stop>
        </linearGradient>
    </defs>
    <g id="缺省页" stroke="none" stroke-width="1" fill="none" fill-rule="evenodd">
        <g id="暂无搜索结果-白板" transform="translate(-17.000000, -138.000000)">
            <g id="暂无搜索结果" transform="translate(17.000000, 138.000000)">
                <g id="编组-10备份-2">
                    <path d="M19.5934529,75.6786645 C19.5934529,75.6786645 2.14077354,57.2650903 0.183529741,41.1811662 C-2.65341389,17.8791427 28.1996729,46.039298 37.3958924,40.0366173 C46.5921119,34.0339367 17.5549517,6.30254431 41.1160688,0.891627342 C64.6771859,-4.51928962 70.3475403,15.855807 79.6426818,30.7597472 C94.8731476,55.1779717 95.9047634,-6.86862685 121.511448,22.9038187 C138.204547,42.3115412 125.997696,74.8868648 125.997696,74.8868648 C121.498226,74.2532112 117.867986,73.8297159 115.106977,73.616379 C110.965464,73.2963738 108.700182,72.9983463 105.055441,72.7903018 C95.5986369,72.2505004 80.1958614,71.5557323 56.0577129,72.3793177 C54.2917821,72.4395707 51.1519766,72.5912366 49.0625851,72.7085097 C47.9355407,72.7717682 46.5584095,72.8583128 44.9428499,72.9576566 C43.6269817,73.0385718 42.1522323,73.1188538 40.5313687,73.276346 C36.9937817,73.6200779 30.0144764,74.4208508 19.5934529,75.6786645 Z" id="路径" fill="url(#linearGradient-1)" fill-rule="nonzero" opacity="0.329296294"></path>
                    <path d="M75.6715658,91 C114.386303,91 145.770799,86.7467051 145.770799,81.5 C145.770799,78.9293379 138.236691,76.5971521 125.997696,74.8868648 C113.25698,73.1064667 95.4177301,72 75.6715658,72 C52.385776,72 31.751828,73.538703 19.0037475,75.9067825 C10.5569879,77.4758499 5.57233267,79.4090356 5.57233267,81.5 C5.57233267,86.7467051 36.9568284,91 75.6715658,91 Z" id="椭圆形" fill="url(#linearGradient-2)" fill-rule="nonzero" opacity="0.25"></path>
                    <g id="编组" transform="translate(80.123160, 1.614803)">
                        <path d="M0.196292198,27.3483373 C0.887342077,29.9016223 2.23899326,32.4215998 2.93166532,33.5344235 C3.44751945,34.3629134 5.40769103,35.3754404 6.21716026,36.0143744 C6.55132992,36.2782819 6.91942887,34.2459514 7.38742861,34.0768218 C8.23339695,33.7712447 3.11135472,27.8802376 3.27843955,26.449581 C3.57124354,23.9404168 7.35417387,21.6240767 7.49611486,20.5668125 C7.65103332,19.4139532 7.76377503,18.7635805 6.8415641,18.2145221 C5.75389052,17.5666005 5.02147498,17.3149487 3.92731267,17.9522487 C2.94508098,18.5241845 1.52080447,20.9132422 1.00738361,21.8740944 C1.00738361,21.8740944 -0.533690068,24.6520684 0.196292198,27.3483373 Z" id="路径" fill="#9099B0" fill-rule="nonzero"></path>
                        <path d="M7.84731744,36.4462023 C8.08496722,36.2942307 8.34046102,36.1643196 8.5781108,36.0123481 C8.71275197,35.9257407 8.81657167,35.8227922 8.88632553,35.7092221 C9.19697354,35.8187069 9.54330957,35.9698614 9.87666814,36.1798436 C10.8361893,36.7836444 11.2530903,37.639097 10.7461581,37.4421877 C10.2384149,37.2452783 9.65848455,36.6398434 9.19859573,36.6708913 C8.7387069,36.7019393 9.92533363,38.9373913 10.2530146,39.0909969 C10.5806955,39.2437855 10.771302,39.8279771 9.83935794,39.5403751 C8.908225,39.2527731 7.47827085,37.2959355 7.38823971,36.5932715 C7.38661752,36.5785646 7.38823971,36.5654917 7.38742861,36.5507848 C7.55289126,36.5605894 7.71673173,36.5303585 7.84731744,36.4462023 Z" id="路径" fill="#F49E87" fill-rule="nonzero"></path>
                        <g transform="translate(5.300379, 31.245674)">
                            <polygon id="路径-3" fill="#E98862" points="0.666620568 34.9882885 0 36.9572669 1.54722528 38.0196347 2.48177703 36.1123912"></polygon>
                            <path d="M17.3063693,24.5025458 C18.457308,21.0292612 12.0027398,6.74410611 10.3362486,4.46354838 C7.91827303,1.15460042 3.91235009,-1.81156981 2.85839802,1.3415958 C1.07805238,6.66795248 8.7980204,20.2645013 9.55233541,21.2743765 C10.3066504,22.2842518 10.0584564,23.2156902 10.0584564,23.2156902 C5.64693028,26.0573942 0.179176825,34.9196464 0.179176825,34.9196464 C1.08273265,35.8159515 2.86488675,37.3359688 2.86488675,37.3359688 C4.90153728,34.227089 16.1554306,27.9758304 17.3063693,24.5025458 Z" id="路径" fill="#262626" fill-rule="nonzero"></path>
                        </g>
                        <g transform="translate(3.798495, 34.916682)">
                            <path d="M6.00488973,36.3242103 C6.27485981,36.3225038 6.4926968,36.041098 6.49148617,35.6956229 C6.49148617,35.680393 6.49100825,35.6651632 6.49005773,35.6499334 C6.47535608,35.4071863 6.35191122,35.1974464 6.17365813,35.1123523 L3.2648701,33.86594 C3.15081022,33.8176509 3.02595555,33.835404 2.92294035,33.9145591 C2.52304726,34.2697223 2.04465787,34.4512799 1.5581628,34.4325172 C1.17920259,34.3981472 0.815446388,34.2281494 0.508399492,33.9419209 C0.453329905,33.8840625 0.377097977,33.8721056 0.312723279,33.9112293 C0.248348582,33.950353 0.207443707,34.0335215 0.207634233,34.1247107 L0.207443707,35.9449841 C0.207443707,36.0531138 0.240926225,36.1568273 0.300644637,36.2333088 C0.360363049,36.3097904 0.441382688,36.352775 0.525880156,36.3528065 C2.1069088,36.3445577 3.29242242,36.3383712 4.08242102,36.3342469 C4.50963629,36.3320165 5.15045919,36.328671 6.00488973,36.3242103 Z" id="路径备份-2" fill="#C1D8ED" fill-rule="nonzero" transform="translate(3.349465, 35.096017) rotate(-330.000000) translate(-3.349465, -35.096017) "></path>
                            <polygon id="路径-2" fill="#E98862" points="5.22833114 36.9844714 5.62921277 38.663061 7.96239993 38.7702342 7.3145114 36.0877244"></polygon>
                            <path d="M2.1662731,0 C-2.20226522,4.73644573 4.36433667,37.0581736 4.36433667,37.0581736 C4.88505736,37.8090436 8.72544444,37.0581736 8.72544444,37.0581736 C9.2202102,31.8829714 9.33064936,21.1591746 11.1426276,14.3956248 C12.7964429,8.22198609 11.0152862,1.10710436 10.7589813,0 L2.1662731,0 Z" id="路径" fill="#262626" fill-rule="nonzero"></path>
                            <path d="M12.3302329,40.5746427 C12.676737,40.5729646 12.9562911,40.2915986 12.9546912,39.9461442 C12.9546912,39.9309153 12.9540733,39.9156863 12.9528513,39.9004574 L12.9528513,39.9004574 C12.9339493,39.6577233 12.7754807,39.4479832 12.5466829,39.3628756 L8.8131113,38.1162343 C8.66670994,38.0679362 8.50646244,38.0856751 8.37425395,38.1648146 C7.86104233,38.5199146 7.24705808,38.7014111 6.62264336,38.6825987 C6.13624659,38.6481911 5.66934583,38.4781655 5.27521535,38.1919221 C5.20452624,38.1340615 5.10668162,38.1220974 5.02406251,38.161212 C4.94144339,38.2003265 4.8889074,38.2834857 4.88920899,38.3746695 L4.88920899,40.1948329 C4.88920899,40.302956 4.93221322,40.4066668 5.00887156,40.4831499 C5.08552989,40.5596331 5.18952367,40.6026236 5.29797544,40.602664 L5.29996122,40.602664 L12.3302329,40.5746427 Z" id="路径" fill="#C1D8ED" fill-rule="nonzero"></path>
                        </g>
                        <path d="M13.8096504,17.3165828 C12.1412354,16.9873112 10.4355101,16.8149134 8.73546253,16.8998867 C8.54485605,16.9096913 8.35343848,16.9219471 8.162832,16.9382881 C6.55119337,17.0747357 4.3685464,17.3206681 3.22328533,18.5470619 C2.34162897,19.490756 1.81523065,20.8674873 1.98555984,22.1698669 C2.15670013,23.4746976 3.55988826,24.0858519 3.98571125,25.3555495 C4.65999858,27.3671295 4.98737065,30.92794 4.96782747,36.0379809 C7.09147076,36.2910699 9.03720637,36.3915051 10.8050343,36.3392865 C12.5728623,36.2870678 14.3370972,36.0770464 16.0977392,35.7092221 C15.9171362,32.483504 15.9171362,30.5778683 16.0977392,29.9923149 C16.654959,28.1825466 17.1635133,26.3523519 17.4822723,24.4829388 C17.7434437,22.953419 18.313641,20.3641838 17.7377661,18.867346 C17.2616554,17.6246111 14.9743776,17.5469913 13.8096504,17.3165828 Z" id="路径" fill="#9099B0" fill-rule="nonzero"></path>
                        <path d="M16.8739537,18.37303 C16.8739537,18.37303 13.9702465,19.5152676 16.4181203,25.79594 C18.8659942,32.0757955 21.3373897,32.0913194 21.3373897,32.0913194 C21.3373897,32.0913194 21.5742284,31.2040018 20.3170367,24.8873791 C19.0606561,18.5699394 16.8739537,18.37303 16.8739537,18.37303 Z" id="路径" fill="#9099B0" fill-rule="nonzero"></path>
                        <path d="M24.064279,15.4144877 C24.0667123,15.4169388 24.0586014,15.4340969 24.0577903,15.434914 C22.9246956,18.1581456 22.3626093,20.8764749 21.2035596,23.5899018 C20.5271094,25.17253 20.0542431,26.6162594 19.5002677,28.2470936 C18.8749162,30.0862758 19.3339939,31.7890105 21.0851403,32.0488328 C22.4907617,32.2571808 22.9401063,31.0528474 23.4746156,29.7994909 C25.2427949,25.6554072 26.3597799,16.0269662 26.3597799,16.0269662 C25.7912048,16.1813889 24.064279,15.4144877 24.064279,15.4144877 Z" id="路径" fill="#9099B0" fill-rule="nonzero"></path>
                        <path d="M25.3766249,17.5028705 L26.3596677,17.1531726 C26.6305722,17.0567606 26.7725132,16.7577198 26.6768045,16.4840077 L25.0518016,11.8490365 L23.0891813,12.5427535 L24.7123411,17.1834035 C24.8080499,17.4562986 25.1057204,17.5992825 25.3766249,17.5028705 Z" id="路径" fill="#296FF6"></path>
                        <path d="M25.7205277,13.2100836 C24.8778037,12.6888049 24.4917242,14.6717881 25.1787186,15.1775428 C26.5591962,16.1964057 26.7157368,13.8269572 25.7205277,13.2100836 Z" id="路径" fill="#FEE3CA" fill-rule="nonzero"></path>
                        <path d="M23.877728,14.8066016 C23.8323069,14.5696568 23.7057766,14.1668505 23.8907055,13.9715753 C23.9953363,13.8604563 24.1405216,13.7877388 24.2264973,13.6610958 C24.312473,13.5344529 24.2938179,13.3138491 24.1453882,13.2787159 C24.0942894,13.2664601 24.0415685,13.28035 23.9920919,13.296691 C23.0301375,13.616158 23.2888757,14.5557669 23.664411,15.2706867 C23.7130765,15.3630135 23.7690418,15.4561573 23.8550175,15.5141679 C23.9182826,15.5574716 23.9872254,15.5729956 24.0586014,15.5493011 C24.0756343,15.3156245 23.9239602,15.0468146 23.877728,14.8066016 Z" id="路径" fill="#FEE3CA" fill-rule="nonzero"></path>
                        <polygon id="路径" fill="url(#linearGradient-3)" points="27.8715421 10.8455374 34.2694311 12.051505 30.275617 0 25.9070787 5.23811515"></polygon>
                        <polygon id="矩形" fill="#296FF6" transform="translate(24.470596, 8.902096) rotate(160.530407) translate(-24.470596, -8.902096) " points="21.9094791 5.93723907 27.0453426 5.92538981 27.0317123 11.866953 21.8958488 11.8788022"></polygon>
                        <polygon id="矩形" fill="#296FF6" transform="translate(21.683773, 9.896900) rotate(160.525005) translate(-21.683773, -9.896900) " points="21.3013488 6.92691933 22.0798314 6.92512283 22.0661975 12.8668815 21.2877148 12.868678"></polygon>
                        <polygon id="矩形" fill="url(#linearGradient-4)" transform="translate(20.804002, 10.210652) rotate(160.525005) translate(-20.804002, -10.210652) " points="20.2633522 8.44930195 21.3527408 8.44678797 21.3446519 11.9720028 20.2552633 11.9745168"></polygon>
                        <path d="M11.3796205,9.8871364 C10.5547406,9.19345995 9.46138934,9.48433017 8.57243316,9.88877051 C7.48962613,10.3806353 6.85535265,11.4812033 7.04514804,12.674098 C7.04514804,12.674098 6.44088494,12.2851816 6.47495078,13.679888 C6.50901662,15.0737773 7.59831238,15.3172586 7.97952534,15.2036885 C7.97952534,15.2036885 8.35992721,16.3957662 9.1069424,16.8549489 L9.57575323,18.4457476 C11.4428856,19.0258539 12.1031141,17.6891582 12.1031141,17.6891582 L11.7648889,16.5420183 C11.9019634,16.4701178 12.0333602,16.3949491 12.1493463,16.3181463 C12.8168745,15.8753045 12.7941639,14.6709711 12.8120079,13.9593195 C12.8144412,13.8588222 12.8152523,13.7583249 12.812819,13.6578276 C12.7933528,12.738645 12.5792247,11.8227307 12.1801677,10.9950578 C11.9806393,10.5808129 11.730012,10.1820919 11.3796205,9.8871364 Z" id="路径" fill="#F1BDA8" fill-rule="nonzero"></path>
                        <path d="M13.2937962,12.3628015 C13.2937962,12.3628015 12.9069056,13.0769042 12.7260323,12.5490892 C12.4064622,11.620102 12.1152804,11.6241872 11.4039533,11.4959102 C10.6926261,11.3676332 10.4160439,11.3962299 9.9375,11.0726777 C9.45895607,10.7491254 9.57331996,11.9591782 9.15885225,12.2165493 C8.84414878,12.4118246 8.19446456,12.5229435 7.64616677,12.7688759 C7.68509916,13.2656431 7.72078718,14.1766551 7.40446153,13.7615931 C7.13599028,13.4094441 6.87481884,13.360421 6.71746711,13.3718597 C6.66636835,13.3947371 6.61851396,13.4061759 6.57147066,13.4053588 C6.57065957,13.4061759 6.56903738,13.4069929 6.56903738,13.4069929 C6.56903738,13.4069929 6.46683987,15.2192124 7.97952534,15.2028714 C7.97952534,15.2028714 8.2009533,15.7748073 8.34046102,15.9954111 C8.34046102,15.9954111 7.51720324,16.3753399 6.5584932,14.4985733 C5.65980392,12.7402791 5.37267756,10.9746315 5.93070845,10.1371541 C6.13834785,9.4720744 6.51793863,9.00145292 6.85373047,8.87072473 C6.85373047,8.87072473 10.1735276,6.51353206 12.2012561,8.31104467 C14.7172617,10.5424115 13.2937962,12.3628015 13.2937962,12.3628015 Z" id="路径" fill="#2C2F32" fill-rule="nonzero"></path>
                    </g>
                    <g id="Rock_with_egg" transform="translate(14.071482, 50.300153)">
                        <g id="编组" transform="translate(0.000000, 5.084915)">
                            <path d="M9.2527464,20.2935962 C9.2527464,20.2935962 8.03741812,9.27687008 1.02455,0 C6.21442571,3.4478207 12.6372943,14.737396 12.0790912,20.2935962 C11.3159781,20.2935962 9.2527464,20.2935962 9.2527464,20.2935962 Z" id="路径" fill="url(#linearGradient-5)"></path>
                            <path d="M7.32376605,20.2935962 C7.32376605,20.2935962 7.1930476,12.3632543 0,5.42154745 C5.19694156,7.77088468 10.9556192,15.8500534 10.1501109,20.2935962 C9.38699778,20.2935962 7.32376605,20.2935962 7.32376605,20.2935962 Z" id="路径" fill="url(#linearGradient-6)"></path>
                            <path d="M13.3756769,20.2935962 C13.3756769,20.2935962 10.6305895,12.3632543 12.5065759,5.42154745 C10.1995719,7.77088468 9.59544071,15.8500534 11.6657383,20.2935962 C12.1250193,20.2935962 13.3756769,20.2935962 13.3756769,20.2935962 Z" id="路径" fill="url(#linearGradient-7)"></path>
                        </g>
                        <g id="编组" transform="translate(5.521971, 0.000000)" fill="url(#linearGradient-8)" fill-rule="nonzero" opacity="0.31812686">
                            <polygon id="路径" points="15.8169323 26.3990382 58.5018051 26.3990382 54.6827067 13.5574121 48.6837898 9.84382929 44.0450513 4.38684689 23.1830935 0 16.3645366 5.89637579 8.72633968 9.84382929 7.7724483 15.41066 1.77353138 21.6968203 0 26.5195171"></polygon>
                        </g>
                        <polygon id="路径" fill="#2B93F6" fill-rule="nonzero" opacity="0.2" points="54.205761 9.84382929 47.853551 8.88354213 42.6495436 9.84382929 47.4013358 7.74962371 52.6442055 8.00475535"></polygon>
                        <polygon id="路径" fill="#2B93F6" fill-rule="nonzero" opacity="0.2" points="21.8865078 5.89637579 26.592372 6.34994316 31.2275775 5.89637579 25.6490794 7.74962371 19.7384857 7.00903324"></polygon>
                        <polygon id="路径" fill="#2B93F6" fill-rule="nonzero" opacity="0.2" points="36.6188303 15.9528148 23.2396204 16.541035 16.3009438 15.9528148 22.9357883 18.3942829"></polygon>
                        <g id="编组" transform="translate(48.425886, 5.917637)">
                            <path d="M5.96005467,21.0200127 C5.96005467,21.0200127 4.84364846,9.60995862 9.34460261,0 C5.32412708,3.57184303 1.76293259,15.2618332 3.3916138,21.0200127 C4.08053536,21.0200127 5.96005467,21.0200127 5.96005467,21.0200127 Z" id="路径" fill="url(#linearGradient-9)"></path>
                            <path d="M7.71238847,21.0200127 C7.71238847,21.0200127 6.23209036,12.8061912 11.3689721,5.61289618 C7.12238898,8.04727729 3.51526639,16.4134691 5.1439476,21.0200127 C5.83640208,21.0200127 7.71238847,21.0200127 7.71238847,21.0200127 Z" id="路径" fill="url(#linearGradient-10)"></path>
                            <path d="M2.21161483,21.0200127 C2.21161483,21.0200127 3.10897932,12.8061912 0,5.61289618 C2.56844087,8.04727729 4.74825932,16.4134691 3.76257156,21.0200127 C3.34921863,21.0200127 2.21161483,21.0200127 2.21161483,21.0200127 Z" id="路径" fill="url(#linearGradient-11)"></path>
                        </g>
                        <g id="编组" transform="translate(12.580767, 18.628154)">
                            <path d="M3.5505957,8.30949593 C3.5505957,8.30949593 3.9038888,3.79862671 0,0 C3.26442828,1.41385453 6.5323895,6.0345721 5.53257001,8.30949593 C4.99909743,8.30949593 3.5505957,8.30949593 3.5505957,8.30949593 Z" id="路径" fill="url(#linearGradient-12)"></path>
                            <path d="M6.44053329,8.30949593 C6.44053329,8.30949593 5.38065398,5.06365445 7.45801743,2.22177141 C5.58556398,3.18205857 4.27484656,6.49168296 5.23933674,8.30949593 C5.56436639,8.30949593 6.44053329,8.30949593 6.44053329,8.30949593 Z" id="路径" fill="url(#linearGradient-13)"></path>
                        </g>
                    </g>
                </g>
                <text id="暂无搜索结果～" font-family="MStiffHeiPRC-UltraBold, MStiffHeiPRC" font-size="15.0825688" font-weight="normal" fill="#B4BBCC">
                    <tspan x="24.7099473" y="103.958424">暂无搜索结果～</tspan>
                </text>
            </g>
        </g>
    </g>
</svg>